<svg xmlns="http://www.w3.org/2000/svg" width="80" height="79" fill="none">
  <g fill="currentColor" clip-path="url(#icon03)">
    <path fill="#000" d="m33.476 10.318-5.569-5.503L32.783 0h14.824l4.844 4.784-5.569 5.499-2.536-2.505h-8.298l-2.572 2.54ZM75.57 51.881l-5.573-5.503 2.126-2.096v-9.074l-2.26-2.232 5.569-5.5L80 31.989v15.514l-4.43 4.38ZM53.447 7.692l-3.62 3.575 19.04 18.802 3.62-3.575-19.04-18.802ZM4.793 51.846 0 47.116V32.378l4.927-4.87 5.573 5.5-2.623 2.59v8.296l2.485 2.454-5.569 5.499ZM48.103 79H32.287l-4.518-4.46 5.573-5.5 2.21 2.182h9.29l2.174-2.15 5.573 5.502L48.103 79ZM69.002 49.284l-19.04 18.802 3.62 3.575 19.04-18.802-3.62-3.575ZM26.914 7.725 7.874 26.527l3.62 3.575L30.534 11.3l-3.62-3.575ZM11.354 49.254l-3.62 3.575 19.04 18.802 3.62-3.575-19.04-18.802Z" />
  </g>
  <defs>
    <clipPath id="icon03">
     <path fill="#000" d="M0 0h80v79H0z"/>
    </clipPath>
  </defs>
</svg>